<?xml version="1.0" encoding="utf-8"?>
<!-- Generator: Adobe Illustrator 25.4.1, SVG Export Plug-In . SVG Version: 6.00 Build 0)  -->
<svg version="1.1" id="Layer_1" xmlns="http://www.w3.org/2000/svg" xmlns:xlink="http://www.w3.org/1999/xlink" x="0px" y="0px"
	 width="819.1px" height="319.9px" viewBox="0 0 819.1 319.9" style="enable-background:new 0 0 819.1 319.9;" xml:space="preserve"
	>
<style type="text/css">
	.st0{fill:#FFFFFF;}
</style>
<g>
	<rect x="721.9" y="114.2" class="st0" width="61.7" height="181.2"/>
	<circle class="st0" cx="752.8" cy="52.6" r="39.6"/>
</g>
<path class="st0" d="M694.9,196.1c0-5.6,0-172.8,0-172.8H633v80.6c-11.7-7.5-27.6-11.7-42.8-11.7c-57.8,0-104.7,46.5-104.7,103.9
	S532.3,300,590.2,300C646.1,300,694.9,257,694.9,196.1z M590.2,239c-23.7,0-42.8-19.2-42.8-42.8s19.2-42.8,42.8-42.8
	c23.7,0,42.8,19.2,42.8,42.8S613.8,239,590.2,239z"/>
<path class="st0" d="M465.2,196.1c0-5.6,0-172.8,0-172.8h-61.9v80.6c-11.7-7.5-27.6-11.7-42.8-11.7c-57.8,0-104.7,46.5-104.7,103.9
	S302.6,300,360.5,300C416.4,300,465.2,257,465.2,196.1z M360.5,239c-23.7,0-42.8-19.2-42.8-42.8s19.2-42.8,42.8-42.8
	s42.8,19.2,42.8,42.8S384.1,239,360.5,239z"/>
<path class="st0" d="M172.3,207.3v87.1H234V121.3c0.1-1.4,0.2-2.8,0.2-4.2c0-57.4-46.9-103.9-104.7-103.9
	c-57.8,0-104.7,46.5-104.7,103.9v177.3h61.7v-87.7c6.4,17.5,23.3,30,43,30c19.3,0,35.8-11.9,42.6-28.8L172.3,207.3z M129.5,145.1
	c-19.6,0-36.3,12.3-42.8,29.6v-57.5c0-23.7,19.2-42.8,42.8-42.8s42.8,19.2,42.8,42.8v57.6C165.8,157.4,149.1,145.1,129.5,145.1z"/>
</svg>
